<svg xmlns="http://www.w3.org/2000/svg" xmlns:xlink="http://www.w3.org/1999/xlink" width="1938" height="1080.006" viewBox="0 0 1938 1080.006">
  <defs>
    <filter id="Cloud_Header" x="0" y="869" width="1938" height="211.006" filterUnits="userSpaceOnUse">
      <feOffset dy="-10" input="SourceAlpha"/>
      <feGaussianBlur stdDeviation="3" result="blur"/>
      <feFlood flood-color="#e8505b" flood-opacity="0.02"/>
      <feComposite operator="in" in2="blur"/>
      <feComposite in="SourceGraphic"/>
    </filter>
    <clipPath id="clip-path">
      <rect id="Banner_Bg" data-name="Banner Bg" width="1920" height="900" transform="translate(-2)" fill="#fef6f6"/>
    </clipPath>
    <linearGradient id="linear-gradient" x1="0.01" y1="0.987" x2="1" gradientUnits="objectBoundingBox">
      <stop offset="0" stop-color="#e8505b"/>
      <stop offset="0.468" stop-color="#e8505b" stop-opacity="0.502"/>
      <stop offset="1" stop-color="#fff" stop-opacity="0"/>
    </linearGradient>
  </defs>
  <g id="Header_Bg" data-name="Header Bg" transform="translate(11)">
    <rect id="Banner_Bg-2" data-name="Banner Bg" width="1920" height="1080" transform="translate(-2)" fill="#fef6f6"/>
    <g transform="matrix(1, 0, 0, 1, -11, 0)" filter="url(#Cloud_Header)">
      <path id="Cloud_Header-2" data-name="Cloud Header" d="M0,192.006H1920V41.558c-20.936-12.92-49.528-24.864-84.84-24.864-76.864,0-104.608,43.144-104.608,43.144s-29.288-23.576-65.7-6.1c-59.208,28.632-15.08,93.664-15.08,93.664s-8.832,1.288-12.344,5.936c-3.44,4.976-1.1,13.3-1.1,13.3s-8.048-3.456-16.56-1.512A12.2,12.2,0,0,0,1610.24,175s-1.32-22.848-16.552-34.968c-31.64-22.784-58.672-1.368-58.672-1.368s-4.464-4.888-7.568-6.168c-2.888-1.448-8.368-1.448-8.368-1.448s-35.3-25.016-84.208-18.128c-48.752,6.88-63.752,55.168-63.752,55.168s-7.432-22.288-33.448-34.328c-36.72-16.688-51.864,0-51.864,0s11.864-27.9-21.248-44.664c-33.28-16.92-42.184,8.264-42.184,8.264a37.906,37.906,0,0,0-15.312-3.448c-8.28,0-14.84,7.464-14.84,7.464s-.16-4.824-8.9-7.464c-8.9-2.736-14.072,0-14.072,0s17.352-47.56-35.3-62c-44.384-12.592-52.344,18.208-54.384,27.992a23.094,23.094,0,0,0-7.816-7.544c-7.736-4.248-9.688-3.368-9.688-3.368S1064.176,21,1043.7,12.822c-20.472-8.336-28.36,7.456-28.36,7.456s-23.168-6.9-38.36,9.864c-15.272,16.768-8.24,38.336-8.24,38.336s-6.328,0-13.984,4.88c-7.7,4.824-7.848,11.88-7.848,11.88a65.609,65.609,0,0,0-31.68-8.352c-18.24,0-30.16,8.352-30.16,8.352s-6.72-10.664-22.656-16.848c-15.9-6.1-28.24,0-28.24,0s11.136-41.216-43.984-62.624c-55.76-21.3-84.584,23.28-84.584,23.28a68.659,68.659,0,0,0-13.008,1.36,24.1,24.1,0,0,0-9.456,6.176s-19.376-18.92-50.08-12.672c-30.472,6.176-33.2,39.624-33.2,39.624S574.08,28.654,508.656,36.19c-64.88,6.9-70.784,41.7-70.784,41.7s-10.16-9.864-29.064-4.728c-5.352,1.28-9.176,3.448-11.52,6.176-8.632-14.12-24.768-33.448-48.944-30.88-22.072,2.728-25.5,15.48-25.5,15.48s-4.416-4.808-9.216-4.808h-9.84a34.151,34.151,0,0,0-13.592-9.784,23.978,23.978,0,0,0-16.872,0s-17.7-8.344-33.048,0C224.88,57.606,223.36,77.886,223.36,77.886s-13.592-9.864-26.1-4.816c-12.464,4.816-10,19.568-10,19.568s-3.984-2.72-12.224-1.44c-8.32,1.44-9.024,4.88-9.024,4.88s-7.536-14.672-22.888-18.2a60.944,60.944,0,0,0-30,1.448S96.016,44.918,27.848,37.462A154.108,154.108,0,0,0,.976,36.9L0,192.006Z" transform="translate(9 888)" fill="#fff"/>
    </g>
    <g id="Mask_Group_9" data-name="Mask Group 9" clip-path="url(#clip-path)">
      <g id="Stars">
        <path id="Path_407" data-name="Path 407" d="M601.047,240.56c1.4,1.495-51.28,53.153-54.028,55.729s-6.112,3.452-7.513,1.958-.309-4.8,2.439-7.371S599.646,239.065,601.047,240.56Z" transform="translate(1072.926 213.024)" fill="url(#linear-gradient)"/>
        <path id="Path_408" data-name="Path 408" d="M618.05,240.569c1.784,1.9-65.308,67.693-68.809,70.975s-7.784,4.4-9.569,2.493-.394-6.107,3.107-9.388S616.265,238.665,618.05,240.569Z" transform="translate(1168.915 -212.976)" fill="url(#linear-gradient)"/>
        <path id="Path_410" data-name="Path 410" d="M578.467,240.548c.892.952-32.65,33.842-34.4,35.483s-3.892,2.2-4.784,1.246-.2-3.053,1.553-4.693S577.575,239.6,578.467,240.548Z" transform="translate(-500.894 -18.751)" fill="url(#linear-gradient)"/>
        <path id="Path_412" data-name="Path 412" d="M586,240.552c1.062,1.133-38.866,40.285-40.949,42.238s-4.633,2.617-5.694,1.484-.234-3.634,1.849-5.587S584.939,239.419,586,240.552Z" transform="translate(1238.915 448.163)" fill="url(#linear-gradient)"/>
        <path id="Path_413" data-name="Path 413" d="M618.05,240.569c1.784,1.9-65.308,67.693-68.809,70.975s-7.784,4.4-9.569,2.493-.394-6.107,3.107-9.388S616.265,238.665,618.05,240.569Z" transform="translate(-415.085 523.024)" fill="url(#linear-gradient)"/>
      </g>
      <g id="Cloud" transform="translate(720.827 98.819)">
        <path id="Path_1" data-name="Path 1" d="M390.5,251.432c-2.039,1.19,147.091,0,147.091,0s-28.916-6.3-44.941-8.586c0,0-8.216-12.591-38.264-12.591s-36.413,14.309-36.413,14.309A51.5,51.5,0,0,0,390.5,251.432Z" transform="translate(639.61 301.967)" fill="#e8505b" opacity="0.05"/>
        <path id="Path_3" data-name="Path 3" d="M341.85,96.738H611.84s-3.675-10.482-37.653-13.976c0,0-9.182-16.307-46.835-19.8s-56.936,16.889-56.936,16.889-16.529-17.292-51.425-.2C418.991,79.646,371.236,78.1,341.85,96.738Z" transform="translate(740.897 45)" fill="#e8505b" opacity="0.05"/>
        <path id="Path_5" data-name="Path 5" d="M300.409,171.9H486.3s-2.529-5.69-25.924-7.589c0,0-6.322-8.851-32.246-10.748s-39.2,9.167-39.2,9.167-11.38-9.387-35.407-.109C353.521,162.625,320.643,161.785,300.409,171.9Z" transform="translate(672.338 141.292)" fill="#e8505b" opacity="0.05"/>
        <path id="Path_2" data-name="Path 2" d="M47.77,265.728H312.263s-3.6-8.1-36.884-10.8c0,0-9-12.594-45.882-15.292s-55.778,13.043-55.778,13.043-16.194-13.354-50.38-.154C123.34,252.529,76.558,251.334,47.77,265.728Z" transform="translate(-902.656 278.789)" fill="#e8505b" opacity="0.05"/>
        <path id="Path_4" data-name="Path 4" d="M24.173,169.311h380.74s1.32-10.757-15.837-13.59c0,0,1.979-15.287-24.415-19.251,0,0,3.96-29.442-38.932-27.178S283.5,145.53,283.5,145.53s-27.265-22.762-50.986-.263c0,0-24.348-18.537-51.191-3,0,0-49.318-31.867-84.9,1.607,0,0-30.588-7.5-41.826,13.392C54.594,157.265,44.315,152.431,24.173,169.311Z" transform="translate(-806 -70.138)" fill="#e8505b" opacity="0.05"/>
      </g>
    </g>
  </g>
</svg>
