<svg xmlns="http://www.w3.org/2000/svg" xmlns:xlink="http://www.w3.org/1999/xlink" width="1939.562" height="931.163" viewBox="0 0 1939.562 931.163">
  <defs>
    <linearGradient id="linear-gradient" x1="1" x2="0" y2="1" gradientUnits="objectBoundingBox">
      <stop offset="0" stop-color="#b12a5b"/>
      <stop offset="0.254" stop-color="#cf556c"/>
      <stop offset="0.633" stop-color="#ff8c7f"/>
      <stop offset="1" stop-color="#ff8177"/>
    </linearGradient>
    <linearGradient id="linear-gradient-2" x1="0.01" y1="0.987" x2="1" gradientUnits="objectBoundingBox">
      <stop offset="0" stop-color="#fff"/>
      <stop offset="0.468" stop-color="#fff" stop-opacity="0.502"/>
      <stop offset="1" stop-color="#fff" stop-opacity="0"/>
    </linearGradient>
    <filter id="Cloud_Header" x="0" y="720" width="1939.562" height="211.163" filterUnits="userSpaceOnUse">
      <feOffset dy="-10" input="SourceAlpha"/>
      <feGaussianBlur stdDeviation="3" result="blur"/>
      <feFlood flood-color="#212529" flood-opacity="0.051"/>
      <feComposite operator="in" in2="blur"/>
      <feComposite in="SourceGraphic"/>
    </filter>
    <filter id="Cloud_Header-2" x="0" y="0" width="1939.562" height="211.163" filterUnits="userSpaceOnUse">
      <feOffset dy="10" input="SourceAlpha"/>
      <feGaussianBlur stdDeviation="3" result="blur-2"/>
      <feFlood flood-color="#212529" flood-opacity="0.051"/>
      <feComposite operator="in" in2="blur-2"/>
      <feComposite in="SourceGraphic"/>
    </filter>
  </defs>
  <g id="CTA_Bg" data-name="CTA Bg" transform="translate(11 1)">
    <rect id="Gradient_Banner_Bg" data-name="Gradient Banner Bg" width="1920" height="930" transform="translate(-2)" fill="url(#linear-gradient)"/>
    <g id="Stars" transform="translate(235.81 150.55)" opacity="0.41">
      <path id="Path_407" data-name="Path 407" d="M601.047,240.56c1.4,1.495-51.28,53.153-54.028,55.729s-6.112,3.452-7.513,1.958-.309-4.8,2.439-7.371S599.646,239.065,601.047,240.56Z" transform="translate(820.116 -95.294)" fill="url(#linear-gradient-2)"/>
      <path id="Path_408" data-name="Path 408" d="M618.05,240.569c1.784,1.9-65.308,67.693-68.809,70.975s-7.784,4.4-9.569,2.493-.394-6.107,3.107-9.388S616.265,238.665,618.05,240.569Z" transform="translate(798.106 -240.527)" fill="url(#linear-gradient-2)"/>
      <path id="Path_409" data-name="Path 409" d="M618.05,240.569c1.784,1.9-65.308,67.693-68.809,70.975s-7.784,4.4-9.569,2.493-.394-6.107,3.107-9.388S616.265,238.665,618.05,240.569Z" transform="translate(-390.894 32.373)" fill="url(#linear-gradient-2)"/>
      <path id="Path_410" data-name="Path 410" d="M578.467,240.548c.892.952-32.65,33.842-34.4,35.483s-3.892,2.2-4.784,1.246-.2-3.053,1.553-4.693S577.575,239.6,578.467,240.548Z" transform="translate(-530.894 -74.96)" fill="url(#linear-gradient-2)"/>
      <path id="Path_411" data-name="Path 411" d="M586,240.552c1.062,1.133-38.866,40.285-40.949,42.238s-4.633,2.617-5.694,1.484-.234-3.634,1.849-5.587S584.939,239.419,586,240.552Z" transform="translate(-299.894 -188.387)" fill="url(#linear-gradient-2)"/>
      <path id="Path_412" data-name="Path 412" d="M586,240.552c1.062,1.133-38.866,40.285-40.949,42.238s-4.633,2.617-5.694,1.484-.234-3.634,1.849-5.587S584.939,239.419,586,240.552Z" transform="translate(731.106 134.613)" fill="url(#linear-gradient-2)"/>
      <path id="Path_413" data-name="Path 413" d="M618.05,240.569c1.784,1.9-65.308,67.693-68.809,70.975s-7.784,4.4-9.569,2.493-.394-6.107,3.107-9.388S616.265,238.665,618.05,240.569Z" transform="translate(-538.894 132.473)" fill="url(#linear-gradient-2)"/>
    </g>
    <g id="Cloud" transform="translate(49 59.701)">
      <path id="Path_1" data-name="Path 1" d="M390.5,251.432c-2.039,1.19,147.091,0,147.091,0s-28.916-6.3-44.941-8.586c0,0-8.216-12.591-38.264-12.591s-36.413,14.309-36.413,14.309A51.5,51.5,0,0,0,390.5,251.432Z" transform="translate(1258.438 174.41)" fill="#c9656c" opacity="0.15"/>
      <path id="Path_3" data-name="Path 3" d="M341.85,96.738H611.84s-3.675-10.482-37.653-13.976c0,0-9.182-16.307-46.835-19.8s-56.936,16.889-56.936,16.889-16.529-17.292-51.425-.2C418.991,79.646,371.236,78.1,341.85,96.738Z" transform="translate(1189.724 -62.557)" fill="#c9656c" opacity="0.15"/>
      <path id="Path_5" data-name="Path 5" d="M300.409,171.9H486.3s-2.529-5.69-25.924-7.589c0,0-6.322-8.851-32.246-10.748s-39.2,9.167-39.2,9.167-11.38-9.387-35.407-.109C353.521,162.625,320.643,161.785,300.409,171.9Z" transform="translate(1131.165 65.735)" fill="#c9656c" opacity="0.15"/>
      <path id="Path_2" data-name="Path 2" d="M47.77,265.728H312.263s-3.6-8.1-36.884-10.8c0,0-9-12.594-45.882-15.292s-55.778,13.043-55.778,13.043-16.194-13.354-50.38-.154C123.34,252.529,76.558,251.334,47.77,265.728Z" transform="translate(9.171 160.232)" fill="#b11c27" opacity="0.15"/>
      <path id="Path_4" data-name="Path 4" d="M24.173,169.311h380.74s1.32-10.757-15.837-13.59c0,0,1.979-15.287-24.415-19.251,0,0,3.96-29.442-38.932-27.178S283.5,145.53,283.5,145.53s-27.265-22.762-50.986-.263c0,0-24.348-18.537-51.191-3,0,0-49.318-31.867-84.9,1.607,0,0-30.588-7.5-41.826,13.392C54.594,157.265,44.315,152.431,24.173,169.311Z" transform="translate(-24.173 -23.695)" fill="#b11c27" opacity="0.15"/>
    </g>
    <g transform="matrix(1, 0, 0, 1, -11, -1)" filter="url(#Cloud_Header)">
      <path id="Cloud_Header-3" data-name="Cloud Header" d="M0,192.162H1921.562V41.591c-20.953-12.931-49.568-24.884-84.909-24.884-76.927,0-104.693,43.179-104.693,43.179s-29.312-23.6-65.757-6.1c-59.256,28.655-15.092,93.74-15.092,93.74s-8.839,1.289-12.354,5.941c-3.443,4.98-1.1,13.315-1.1,13.315s-8.055-3.459-16.574-1.513a12.2,12.2,0,0,0-9.536,9.872s-1.321-22.867-16.566-35c-31.666-22.8-58.72-1.369-58.72-1.369s-4.468-4.892-7.574-6.173c-2.89-1.449-8.375-1.449-8.375-1.449s-35.333-25.036-84.276-18.143c-48.792,6.886-63.8,55.213-63.8,55.213s-7.438-22.306-33.475-34.356c-36.75-16.7-51.906,0-51.906,0s11.874-27.919-21.265-44.7c-33.307-16.934-42.218,8.271-42.218,8.271a37.936,37.936,0,0,0-15.324-3.451c-8.287,0-14.852,7.47-14.852,7.47s-.16-4.828-8.9-7.47c-8.911-2.738-14.083,0-14.083,0s17.366-47.6-35.333-62.05c-44.42-12.6-52.387,18.223-54.428,28.015a23.113,23.113,0,0,0-7.822-7.55c-7.742-4.251-9.7-3.371-9.7-3.371s2.114-28.015-18.375-36.2c-20.489-8.343-28.383,7.462-28.383,7.462s-23.187-6.9-38.391,9.872c-15.284,16.782-8.247,38.367-8.247,38.367s-6.333,0-14,4.884c-7.7,4.828-7.854,11.89-7.854,11.89a65.663,65.663,0,0,0-31.706-8.359c-18.255,0-30.185,8.359-30.185,8.359s-6.725-10.673-22.674-16.862c-15.909-6.1-28.263,0-28.263,0S846,27.2,790.835,5.77c-55.805-21.321-84.653,23.3-84.653,23.3a68.715,68.715,0,0,0-13.019,1.361,24.122,24.122,0,0,0-9.464,6.181s-19.392-18.935-50.121-12.682c-30.5,6.181-33.227,39.656-33.227,39.656s-25.8-34.908-91.282-27.366c-64.933,6.91-70.842,41.738-70.842,41.738s-10.168-9.872-29.088-4.732c-5.356,1.281-9.183,3.451-11.529,6.181-8.639-14.131-24.788-33.475-48.984-30.905-22.09,2.73-25.525,15.493-25.525,15.493s-4.42-4.812-9.224-4.812h-9.848a34.179,34.179,0,0,0-13.6-9.792,24,24,0,0,0-16.886,0s-17.71-8.351-33.075,0c-15.4,8.263-16.926,28.559-16.926,28.559s-13.6-9.872-26.117-4.82c-12.474,4.82-10.008,19.584-10.008,19.584s-3.987-2.722-12.234-1.441c-8.327,1.441-9.031,4.884-9.031,4.884s-7.542-14.684-22.907-18.215A60.993,60.993,0,0,0,113.22,79.39s-17.126-34.436-85.349-41.9a154.233,154.233,0,0,0-26.894-.56L0,192.162Z" transform="translate(9 739)" fill="#fef6f6"/>
    </g>
    <g transform="matrix(1, 0, 0, 1, -11, -1)" filter="url(#Cloud_Header-2)">
      <path id="Cloud_Header-4" data-name="Cloud Header" d="M0,192.162H1921.562V41.591c-20.953-12.931-49.568-24.884-84.909-24.884-76.927,0-104.693,43.179-104.693,43.179s-29.312-23.6-65.757-6.1c-59.256,28.655-15.092,93.74-15.092,93.74s-8.839,1.289-12.354,5.941c-3.443,4.98-1.1,13.315-1.1,13.315s-8.055-3.459-16.574-1.513a12.2,12.2,0,0,0-9.536,9.872s-1.321-22.867-16.566-35c-31.666-22.8-58.72-1.369-58.72-1.369s-4.468-4.892-7.574-6.173c-2.89-1.449-8.375-1.449-8.375-1.449s-35.333-25.036-84.276-18.143c-48.792,6.886-63.8,55.213-63.8,55.213s-7.438-22.306-33.475-34.356c-36.75-16.7-51.906,0-51.906,0s11.874-27.919-21.265-44.7c-33.307-16.934-42.218,8.271-42.218,8.271a37.936,37.936,0,0,0-15.324-3.451c-8.287,0-14.852,7.47-14.852,7.47s-.16-4.828-8.9-7.47c-8.911-2.738-14.083,0-14.083,0s17.366-47.6-35.333-62.05c-44.42-12.6-52.387,18.223-54.428,28.015a23.113,23.113,0,0,0-7.822-7.55c-7.742-4.251-9.7-3.371-9.7-3.371s2.114-28.015-18.375-36.2c-20.489-8.343-28.383,7.462-28.383,7.462s-23.187-6.9-38.391,9.872c-15.284,16.782-8.247,38.367-8.247,38.367s-6.333,0-14,4.884c-7.7,4.828-7.854,11.89-7.854,11.89a65.663,65.663,0,0,0-31.706-8.359c-18.255,0-30.185,8.359-30.185,8.359s-6.725-10.673-22.674-16.862c-15.909-6.1-28.263,0-28.263,0S846,27.2,790.835,5.77c-55.805-21.321-84.653,23.3-84.653,23.3a68.715,68.715,0,0,0-13.019,1.361,24.122,24.122,0,0,0-9.464,6.181s-19.392-18.935-50.121-12.682c-30.5,6.181-33.227,39.656-33.227,39.656s-25.8-34.908-91.282-27.366c-64.933,6.91-70.842,41.738-70.842,41.738s-10.168-9.872-29.088-4.732c-5.356,1.281-9.183,3.451-11.529,6.181-8.639-14.131-24.788-33.475-48.984-30.905-22.09,2.73-25.525,15.493-25.525,15.493s-4.42-4.812-9.224-4.812h-9.848a34.179,34.179,0,0,0-13.6-9.792,24,24,0,0,0-16.886,0s-17.71-8.351-33.075,0c-15.4,8.263-16.926,28.559-16.926,28.559s-13.6-9.872-26.117-4.82c-12.474,4.82-10.008,19.584-10.008,19.584s-3.987-2.722-12.234-1.441c-8.327,1.441-9.031,4.884-9.031,4.884s-7.542-14.684-22.907-18.215A60.993,60.993,0,0,0,113.22,79.39s-17.126-34.436-85.349-41.9a154.233,154.233,0,0,0-26.894-.56L0,192.162Z" transform="translate(1930.56 192.16) rotate(180)" fill="#fef6f6"/>
    </g>
  </g>
</svg>
