<svg xmlns="http://www.w3.org/2000/svg" xmlns:xlink="http://www.w3.org/1999/xlink" width="70" height="58.603" viewBox="0 0 70 58.603">
  <defs>
    <linearGradient id="linear-gradient" y1="0.5" x2="1" y2="0.561" gradientUnits="objectBoundingBox">
      <stop offset="0" stop-color="#e8505b"/>
      <stop offset="1" stop-color="#fff"/>
    </linearGradient>
  </defs>
  <path id="Icon_Shape" data-name="Icon Shape" d="M-127.875-163c5.83.71,9.91,7.2,12.752,14.046,2.86,6.85,4.481,14.1,1.548,19.256-2.933,5.174-10.438,8.271-16.031,10.876a145.223,145.223,0,0,0-13.663,7.232c-4.372,2.532-9.418,5.5-15.886,6.631-6.449,1.148-14.337.455-18.582-3.771-4.263-4.208-4.919-11.951-3.807-18.6,1.111-6.667,3.971-12.242,6.886-17.47,2.915-5.21,5.884-10.074,10.2-11.477,4.3-1.4,9.947.656,16.56-.856S-133.687-163.715-127.875-163Z" transform="translate(182.022 163.073)" opacity="0.2" fill="url(#linear-gradient)"/>
</svg>
